<svg width="171" height="52" viewBox="0 0 171 52" fill="none" xmlns="http://www.w3.org/2000/svg">
<path d="M28.4752 0L0 29.7143L22.2624 52H73L28.4752 0Z" fill="url(#paint0_linear_1152_1169)"/>
<path d="M73.1617 0L29.9042 44.4774C24.5485 48.7133 18.3174 45.4481 16 43.6832C22.6946 50.8313 22.6946 51.3608 29.1317 51.3608C75.479 51.3608 70.4401 52.3171 76.2515 51.8903C83.4611 51.3608 93.503 40.2415 102 30.1811L73.1617 0Z" fill="url(#paint1_linear_1152_1169)"/>
<path d="M120.712 10.768V22H117.976V15.264L115.464 22H113.256L110.728 15.248V22H107.992V10.768H111.224L114.376 18.544L117.496 10.768H120.712Z" fill="black"/>
<path d="M126.743 22.128C125.869 22.128 125.08 21.9413 124.376 21.568C123.682 21.1947 123.133 20.6613 122.728 19.968C122.333 19.2747 122.135 18.464 122.135 17.536C122.135 16.6187 122.338 15.8133 122.743 15.12C123.149 14.416 123.704 13.8773 124.408 13.504C125.112 13.1307 125.901 12.944 126.775 12.944C127.65 12.944 128.439 13.1307 129.143 13.504C129.847 13.8773 130.402 14.416 130.807 15.12C131.213 15.8133 131.415 16.6187 131.415 17.536C131.415 18.4533 131.208 19.264 130.792 19.968C130.386 20.6613 129.826 21.1947 129.111 21.568C128.407 21.9413 127.618 22.128 126.743 22.128ZM126.743 19.76C127.266 19.76 127.709 19.568 128.072 19.184C128.445 18.8 128.632 18.2507 128.632 17.536C128.632 16.8213 128.45 16.272 128.087 15.888C127.735 15.504 127.298 15.312 126.775 15.312C126.242 15.312 125.8 15.504 125.448 15.888C125.096 16.2613 124.92 16.8107 124.92 17.536C124.92 18.2507 125.09 18.8 125.432 19.184C125.784 19.568 126.221 19.76 126.743 19.76Z" fill="black"/>
<path d="M138.307 12.976C139.352 12.976 140.184 13.3173 140.803 14C141.432 14.672 141.747 15.6 141.747 16.784V22H139.027V17.152C139.027 16.5547 138.872 16.0907 138.563 15.76C138.254 15.4293 137.838 15.264 137.315 15.264C136.792 15.264 136.376 15.4293 136.067 15.76C135.758 16.0907 135.603 16.5547 135.603 17.152V22H132.867V13.072H135.603V14.256C135.88 13.8613 136.254 13.552 136.723 13.328C137.192 13.0933 137.72 12.976 138.307 12.976Z" fill="black"/>
<path d="M152.064 17.392C152.064 17.648 152.048 17.9147 152.016 18.192H145.824C145.867 18.7467 146.043 19.1733 146.352 19.472C146.672 19.76 147.062 19.904 147.52 19.904C148.203 19.904 148.678 19.616 148.944 19.04H151.856C151.707 19.6267 151.435 20.1547 151.04 20.624C150.656 21.0933 150.171 21.4613 149.584 21.728C148.998 21.9947 148.342 22.128 147.616 22.128C146.742 22.128 145.963 21.9413 145.28 21.568C144.598 21.1947 144.064 20.6613 143.68 19.968C143.296 19.2747 143.104 18.464 143.104 17.536C143.104 16.608 143.291 15.7973 143.664 15.104C144.048 14.4107 144.582 13.8773 145.264 13.504C145.947 13.1307 146.731 12.944 147.616 12.944C148.48 12.944 149.248 13.1253 149.92 13.488C150.592 13.8507 151.115 14.368 151.488 15.04C151.872 15.712 152.064 16.496 152.064 17.392ZM149.264 16.672C149.264 16.2027 149.104 15.8293 148.784 15.552C148.464 15.2747 148.064 15.136 147.584 15.136C147.126 15.136 146.736 15.2693 146.416 15.536C146.107 15.8027 145.915 16.1813 145.84 16.672H149.264Z" fill="black"/>
<path d="M162.628 13.072L157.028 26.24H154.084L156.132 21.696L152.5 13.072H155.556L157.62 18.656L159.668 13.072H162.628Z" fill="black"/>
<path d="M120.712 34.768V46H117.976V39.264L115.464 46H113.256L110.728 39.248V46H107.992V34.768H111.224L114.376 42.544L117.496 34.768H120.712Z" fill="black"/>
<path d="M122.135 41.52C122.135 40.6027 122.306 39.7973 122.647 39.104C122.999 38.4107 123.474 37.8773 124.072 37.504C124.669 37.1307 125.336 36.944 126.072 36.944C126.701 36.944 127.25 37.072 127.719 37.328C128.199 37.584 128.568 37.92 128.824 38.336V37.072H131.559V46H128.824V44.736C128.557 45.152 128.183 45.488 127.703 45.744C127.234 46 126.685 46.128 126.055 46.128C125.33 46.128 124.669 45.9413 124.072 45.568C123.474 45.184 122.999 44.6453 122.647 43.952C122.306 43.248 122.135 42.4373 122.135 41.52ZM128.824 41.536C128.824 40.8533 128.631 40.3147 128.247 39.92C127.874 39.5253 127.415 39.328 126.871 39.328C126.327 39.328 125.863 39.5253 125.479 39.92C125.106 40.304 124.92 40.8373 124.92 41.52C124.92 42.2027 125.106 42.7467 125.479 43.152C125.863 43.5467 126.327 43.744 126.871 43.744C127.415 43.744 127.874 43.5467 128.247 43.152C128.631 42.7573 128.824 42.2187 128.824 41.536Z" fill="black"/>
<path d="M138.515 43.68V46H137.123C136.131 46 135.358 45.76 134.803 45.28C134.248 44.7893 133.971 43.9947 133.971 42.896V39.344H132.883V37.072H133.971V34.896H136.707V37.072H138.499V39.344H136.707V42.928C136.707 43.1947 136.771 43.3867 136.899 43.504C137.027 43.6213 137.24 43.68 137.539 43.68H138.515Z" fill="black"/>
<path d="M145.015 43.68V46H143.623C142.631 46 141.858 45.76 141.303 45.28C140.748 44.7893 140.471 43.9947 140.471 42.896V39.344H139.383V37.072H140.471V34.896H143.207V37.072H144.999V39.344H143.207V42.928C143.207 43.1947 143.271 43.3867 143.399 43.504C143.527 43.6213 143.74 43.68 144.039 43.68H145.015Z" fill="black"/>
<path d="M154.955 41.392C154.955 41.648 154.939 41.9147 154.907 42.192H148.715C148.758 42.7467 148.934 43.1733 149.243 43.472C149.563 43.76 149.952 43.904 150.411 43.904C151.094 43.904 151.568 43.616 151.835 43.04H154.747C154.598 43.6267 154.326 44.1547 153.931 44.624C153.547 45.0933 153.062 45.4613 152.475 45.728C151.888 45.9947 151.232 46.128 150.507 46.128C149.632 46.128 148.854 45.9413 148.171 45.568C147.488 45.1947 146.955 44.6613 146.571 43.968C146.187 43.2747 145.995 42.464 145.995 41.536C145.995 40.608 146.182 39.7973 146.555 39.104C146.939 38.4107 147.472 37.8773 148.155 37.504C148.838 37.1307 149.622 36.944 150.507 36.944C151.371 36.944 152.139 37.1253 152.811 37.488C153.483 37.8507 154.006 38.368 154.379 39.04C154.763 39.712 154.955 40.496 154.955 41.392ZM152.155 40.672C152.155 40.2027 151.995 39.8293 151.675 39.552C151.355 39.2747 150.955 39.136 150.475 39.136C150.016 39.136 149.627 39.2693 149.307 39.536C148.998 39.8027 148.806 40.1813 148.731 40.672H152.155Z" fill="black"/>
<path d="M159.134 38.56C159.454 38.0693 159.854 37.6853 160.334 37.408C160.814 37.12 161.348 36.976 161.934 36.976V39.872H161.182C160.5 39.872 159.988 40.0213 159.646 40.32C159.305 40.608 159.134 41.12 159.134 41.856V46H156.398V37.072H159.134V38.56Z" fill="black"/>
<path d="M166.874 46.128C166.095 46.128 165.402 45.9947 164.794 45.728C164.186 45.4613 163.706 45.0987 163.354 44.64C163.002 44.1707 162.805 43.648 162.762 43.072H165.466C165.498 43.3813 165.642 43.632 165.898 43.824C166.154 44.016 166.469 44.112 166.842 44.112C167.183 44.112 167.445 44.048 167.626 43.92C167.818 43.7813 167.914 43.6053 167.914 43.392C167.914 43.136 167.781 42.9493 167.514 42.832C167.247 42.704 166.815 42.5653 166.218 42.416C165.578 42.2667 165.045 42.112 164.618 41.952C164.191 41.7813 163.823 41.52 163.514 41.168C163.205 40.8053 163.05 40.32 163.05 39.712C163.05 39.2 163.189 38.736 163.466 38.32C163.754 37.8933 164.17 37.5573 164.714 37.312C165.269 37.0667 165.925 36.944 166.682 36.944C167.802 36.944 168.682 37.2213 169.322 37.776C169.973 38.3307 170.346 39.0667 170.442 39.984H167.914C167.871 39.6747 167.733 39.4293 167.498 39.248C167.274 39.0667 166.975 38.976 166.602 38.976C166.282 38.976 166.037 39.04 165.866 39.168C165.695 39.2853 165.61 39.4507 165.61 39.664C165.61 39.92 165.743 40.112 166.01 40.24C166.287 40.368 166.714 40.496 167.29 40.624C167.951 40.7947 168.49 40.9653 168.906 41.136C169.322 41.296 169.685 41.5627 169.994 41.936C170.314 42.2987 170.479 42.7893 170.49 43.408C170.49 43.9307 170.341 44.4 170.042 44.816C169.754 45.2213 169.333 45.5413 168.778 45.776C168.234 46.0107 167.599 46.128 166.874 46.128Z" fill="black"/>
<defs>
<linearGradient id="paint0_linear_1152_1169" x1="12.0915" y1="29.1837" x2="99.405" y2="61.516" gradientUnits="userSpaceOnUse">
<stop stop-color="#3FE5B2"/>
<stop offset="1" stop-color="#22A184"/>
</linearGradient>
<linearGradient id="paint1_linear_1152_1169" x1="111.788" y1="-1.54293e-06" x2="113.026" y2="51.1773" gradientUnits="userSpaceOnUse">
<stop stop-color="#57F06F"/>
<stop offset="1" stop-color="#24CA79"/>
</linearGradient>
</defs>
</svg>
